:FULLY-SPECIFIED
:FORCE-ALL-JOINTS-BE-3DOF
:DEGREES
178
root 8.22214 16.5898 -12.3705 7.30383 5.709 -1.31453
lfemur -27.7309 6.69156 -19.9397
ltibia 53.4904 -0 0
lfoot -13.0285 10.8463 0.0239854
ltoes -3.15148 0 0
rfemur -19.8801 5.34113 25.1473
rtibia 28.1581 -0 0
rfoot -19.9388 -0.215651 0.058682
rtoes -14.9451 0 0
lowerback -4.43836 0.66591 -0.271311
upperback -1.94374 0.882692 3.18363
thorax 0.482948 0.453182 3.42407
lowerneck -13.7526 -6.84587 -15.63
upperneck 13.6076 -8.79627 15.6971
head 7.90619 -3.74958 6.86385
lclavicle -2.60518e-14 -1.50816e-14 2.04882e-30
lhumerus -47.1939 -12.5303 96.5771
lradius 33.6118 -0 0
lwrist 16.6998 0 0
lhand -15.0949 -24.562 0.000815415
lfingers 7.12502 -0 0
lthumb 11.073 5.12132 -0.000176117
rclavicle -2.60518e-14 -1.50816e-14 2.04882e-30
rhumerus -40.9443 9.66634 -78.6472
rradius 43.8434 -0 0
rwrist -21.4043 0 0
rhand -31.1947 -24.9836 0.00252603
rfingers 7.12502 -0 0
rthumb -4.47119 -54.9161 0.00241858
179
root 8.20362 16.6001 -12.2285 7.34208 5.70234 -1.43797
lfemur -28.5466 6.84926 -19.8431
ltibia 54.4629 -0 0
lfoot -12.9855 11.0393 0.0203502
ltoes -3.10985 0 0
rfemur -19.5022 5.15308 25.4906
rtibia 28.1972 -0 0
rfoot -19.8536 0.0227546 0.0497868
rtoes -14.8186 0 0
lowerback -4.36429 0.7425 -0.15497
upperback -1.95658 0.980839 3.20314
thorax 0.416865 0.503154 3.38858
lowerneck -13.6468 -6.87081 -15.6744
upperneck 13.4631 -8.83688 15.7842
head 7.85083 -3.76882 6.89267
lclavicle -2.47206e-14 -1.5616e-14 1.73839e-30
lhumerus -47.5127 -12.2796 96.5439
lradius 33.475 -0 0
lwrist 16.8042 0 0
lhand -15.1704 -24.5658 0.000691862
lfingers 7.12502 -0 0
lthumb 11.0002 5.12216 -0.000149432
rclavicle -2.47206e-14 -1.5616e-14 1.73839e-30
rhumerus -40.8318 9.70466 -78.5611
rradius 44.0263 -0 0
rwrist -21.4474 0 0
rhand -31.215 -25.0269 0.00214329
rfingers 7.12502 -0 0
rthumb -4.49077 -54.959 0.00205212
180
root 8.18511 16.6104 -12.0865 7.38034 5.69576 -1.56142
lfemur -29.3623 7.00832 -19.7488
ltibia 55.4355 -0 0
lfoot -12.9424 11.2324 0.01657
ltoes -3.06822 0 0
rfemur -19.1255 4.96279 25.8325
rtibia 28.2364 -0 0
rfoot -19.7685 0.261147 0.0405372
rtoes -14.6921 0 0
lowerback -4.29007 0.818939 -0.0385273
upperback -1.96939 1.07899 3.22264
thorax 0.35075 0.553085 3.35303
lowerneck -13.5409 -6.89567 -15.7188
upperneck 13.3186 -8.87726 15.8715
head 7.79545 -3.78804 6.92151
lclavicle -2.33894e-14 -1.61504e-14 1.41555e-30
lhumerus -47.8313 -12.0292 96.5093
lradius 33.3382 -0 0
lwrist 16.9085 0 0
lhand -15.2459 -24.5695 0.000563369
lfingers 7.12502 -0 0
lthumb 10.9274 5.123 -0.000121679
rclavicle -2.33894e-14 -1.61504e-14 1.41555e-30
rhumerus -40.7193 9.74281 -78.475
rradius 44.2091 -0 0
rwrist -21.4904 0 0
rhand -31.2353 -25.0701 0.00174525
rfingers 7.12502 -0 0
rthumb -4.51036 -55.0019 0.00167101
181
root 8.1666 16.6207 -11.9445 7.41862 5.68926 -1.68486
lfemur -30.1781 7.16869 -19.6567
ltibia 56.408 -0 0
lfoot -12.8994 11.4254 0.0126449
ltoes -3.02658 0 0
rfemur -18.7501 4.77027 26.1731
rtibia 28.2755 -0 0
rfoot -19.6834 0.499525 0.0309336
rtoes -14.5656 0 0
lowerback -4.21568 0.895227 0.0780164
upperback -1.98216 1.17715 3.24211
thorax 0.284604 0.602975 3.31743
lowerneck -13.435 -6.92045 -15.7633
upperneck 13.174 -8.91743 15.9589
head 7.74006 -3.80722 6.95037
lclavicle -2.20582e-14 -1.66849e-14 1.08029e-30
lhumerus -48.1498 -11.7789 96.4733
lradius 33.2015 -0 0
lwrist 17.0129 0 0
lhand -15.3214 -24.5733 0.000429936
lfingers 7.12502 -0 0
lthumb 10.8546 5.12384 -9.28597e-05
rclavicle -2.20582e-14 -1.66849e-14 1.08029e-30
rhumerus -40.6067 9.7808 -78.3887
rradius 44.392 -0 0
rwrist -21.5335 0 0
rhand -31.2556 -25.1134 0.0013319
rfingers 7.12502 -0 0
rthumb -4.52994 -55.0448 0.00127524
182
root 8.14809 16.6309 -11.8025 7.45691 5.68284 -1.80832
lfemur -30.9938 7.33035 -19.567
ltibia 57.3806 -0 0
lfoot -12.8564 11.6184 0.00857478
ltoes -2.98495 0 0
rfemur -18.3759 4.57553 26.5124
rtibia 28.3147 -0 0
rfoot -19.5984 0.737889 0.020976
rtoes -14.4391 0 0
lowerback -4.14115 0.971363 0.194661
upperback -1.99491 1.27531 3.26157
thorax 0.218427 0.652824 3.28177
lowerneck -13.329 -6.94514 -15.8078
upperneck 13.0293 -8.95738 16.0464
head 7.68466 -3.82638 6.97925
lclavicle -2.0727e-14 -1.72193e-14 7.32608e-31
lhumerus -48.4682 -11.5288 96.436
lradius 33.0647 -0 0
lwrist 17.1172 0 0
lhand -15.397 -24.577 0.000291564
lfingers 7.12502 -0 0
lthumb 10.7818 5.12468 -6.29733e-05
rclavicle -2.0727e-14 -1.72193e-14 7.32608e-31
rhumerus -40.494 9.81862 -78.3024
rradius 44.5749 -0 0
rwrist -21.5765 0 0
rhand -31.2758 -25.1566 0.000903237
rfingers 7.12502 -0 0
rthumb -4.54952 -55.0876 0.000864816
183
root 8.12957 16.6412 -11.6605 7.49521 5.6765 -1.93177
lfemur -31.8096 7.49326 -19.4795
ltibia 58.3531 -0 0
lfoot -12.8134 11.8115 0.00435981
ltoes -2.94331 0 0
rfemur -18.003 4.37859 26.8502
rtibia 28.3538 -0 0
rfoot -19.5134 0.976237 0.0106648
rtoes -14.3126 0 0
lowerback -4.06645 1.04735 0.311408
upperback -2.00761 1.37347 3.281
thorax 0.152217 0.702632 3.24605
lowerneck -13.2231 -6.96976 -15.8524
upperneck 12.8845 -8.99712 16.1341
head 7.62925 -3.84551 7.00814
lclavicle -1.93958e-14 -1.77538e-14 3.72512e-31
lhumerus -48.7864 -11.2789 96.3972
lradius 32.9279 -0 0
lwrist 17.2216 0 0
lhand -15.4725 -24.5808 0.000148251
lfingers 7.12502 -0 0
lthumb 10.709 5.12552 -3.20201e-05
rclavicle -1.93958e-14 -1.77538e-14 3.72512e-31
rhumerus -40.3812 9.85628 -78.216
rradius 44.7577 -0 0
rwrist -21.6196 0 0
rhand -31.2961 -25.1999 0.000459271
rfingers 7.12502 -0 0
rthumb -4.5691 -55.1305 0.000439735
184
root 8.11106 16.6515 -11.5185 7.53353 5.67025 -2.05523
lfemur -32.6255 7.65739 -19.3943
ltibia 59.3257 0 0
lfoot -12.7704 12.0045 0
ltoes -2.90168 0 0
rfemur -17.6314 4.17947 27.1867
rtibia 28.393 0 0
rfoot -19.4284 1.21457 0
rtoes -14.1861 0 0
lowerback -3.9916 1.12318 0.428257
upperback -2.02029 1.47164 3.30041
thorax 0.0859759 0.752398 3.21027
lowerneck -13.1171 -6.99429 -15.897
upperneck 12.7397 -9.03663 16.2218
head 7.57383 -3.86461 7.03706
lclavicle -1.80646e-14 -1.82882e-14 0
lhumerus -49.1046 -11.0293 96.3571
lradius 32.7911 0 0
lwrist 17.3259 0 0
lhand -15.548 -24.5845 0
lfingers 7.12502 0 0
lthumb 10.6362 5.12636 0
rclavicle -1.80646e-14 -1.82882e-14 0
rhumerus -40.2684 9.89376 -78.1295
rradius 44.9406 0 0
rwrist -21.6626 0 0
rhand -31.3164 -25.2431 0
rfingers 7.12502 0 0
rthumb -4.58868 -55.1734 0
185
root 8.13011 16.6457 -11.3659 7.57387 5.49174 -2.06209
lfemur -32.8308 7.68732 -19.4439
ltibia 59.0499 -0 0
lfoot -12.6728 11.8926 -0.00573399
ltoes -2.85398 0 0
rfemur -17.1279 4.12543 27.1059
rtibia 28.318 -0 0
rfoot -18.9949 1.27615 0.0142292
rtoes -14.2088 0 0
lowerback -4.04193 1.13972 0.422777
upperback -2.03157 1.49337 3.27675
thorax 0.101996 0.762879 3.19167
lowerneck -13.2071 -6.98035 -15.8627
upperneck 12.8081 -9.01518 16.1997
head 7.60637 -3.85012 7.02756
lclavicle -1.83712e-14 -1.78646e-14 6.80157e-32
lhumerus -49.049 -10.9318 96.2193
lradius 32.569 -0 0
lwrist 16.9413 0 0
lhand -15.3935 -24.5391 0.00367842
lfingers 7.12502 -0 0
lthumb 10.785 5.16044 0.00266075
rclavicle -1.83712e-14 -1.78646e-14 6.80157e-32
rhumerus -40.3703 9.87421 -78.2815
rradius 44.9018 -0 0
rwrist -21.6903 0 0
rhand -31.3017 -25.2295 0.000104837
rfingers 7.12502 -0 0
rthumb -4.5745 -55.16 9.91844e-05
186
root 8.14916 16.6399 -11.2132 7.61421 5.31323 -2.06907
lfemur -33.0361 7.71706 -19.4936
ltibia 58.7742 -0 0
lfoot -12.5751 11.7806 -0.0112772
ltoes -2.80629 0 0
rfemur -16.6243 4.07211 27.0246
rtibia 28.2429 -0 0
rfoot -18.5613 1.33783 0.0279921
rtoes -14.2316 0 0
lowerback -4.09227 1.15625 0.417281
upperback -2.04285 1.51509 3.25308
thorax 0.118013 0.773366 3.17308
lowerneck -13.297 -6.96637 -15.8284
upperneck 12.8764 -8.9937 16.1776
head 7.6389 -3.83563 7.01807
lclavicle -1.86779e-14 -1.74409e-14 1.33764e-31
lhumerus -48.9936 -10.8341 96.0816
lradius 32.3468 -0 0
lwrist 16.5568 0 0
lhand -15.239 -24.4938 0.0072345
lfingers 7.12502 -0 0
lthumb 10.9338 5.19452 0.00523298
rclavicle -1.86779e-14 -1.74409e-14 1.33764e-31
rhumerus -40.4722 9.8544 -78.4335
rradius 44.8631 -0 0
rwrist -21.7179 0 0
rhand -31.287 -25.2158 0.000206179
rfingers 7.12502 -0 0
rthumb -4.56031 -55.1467 0.000195063
187
root 8.16822 16.6342 -11.0606 7.65457 5.13473 -2.07617
lfemur -33.2414 7.74664 -19.5435
ltibia 58.4984 -0 0
lfoot -12.4774 11.6687 -0.0166296
ltoes -2.75859 0 0
rfemur -16.1207 4.01949 26.9428
rtibia 28.1679 -0 0
rfoot -18.1277 1.39962 0.0412877
rtoes -14.2543 0 0
lowerback -4.14261 1.17278 0.411772
upperback -2.05414 1.53681 3.22941
thorax 0.134026 0.783857 3.15449
lowerneck -13.387 -6.95232 -15.7942
upperneck 12.9447 -8.9722 16.1555
head 7.67143 -3.82113 7.00859
lclavicle -1.89845e-14 -1.70173e-14 1.97246e-31
lhumerus -48.9384 -10.7363 95.944
lradius 32.1247 -0 0
lwrist 16.1722 0 0
lhand -15.0845 -24.4484 0.0106682
lfingers 7.12502 -0 0
lthumb 11.0826 5.22861 0.00771669
rclavicle -1.89845e-14 -1.70173e-14 1.97246e-31
rhumerus -40.574 9.83432 -78.5854
rradius 44.8243 -0 0
rwrist -21.7456 0 0
rhand -31.2723 -25.2022 0.000304027
rfingers 7.12502 -0 0
rthumb -4.54613 -55.1333 0.000287635
188
root 8.18727 16.6284 -10.9079 7.69493 4.95624 -2.0834
lfemur -33.4468 7.77603 -19.5934
ltibia 58.2227 -0 0
lfoot -12.3797 11.5568 -0.0217912
ltoes -2.71089 0 0
rfemur -15.617 3.9676 26.8606
rtibia 28.0929 -0 0
rfoot -17.6941 1.46151 0.0541155
rtoes -14.2771 0 0
lowerback -4.19295 1.1893 0.406248
upperback -2.06545 1.55852 3.20573
thorax 0.150036 0.794354 3.1359
lowerneck -13.4769 -6.93823 -15.76
upperneck 13.013 -8.95068 16.1335
head 7.70396 -3.80663 6.99912
lclavicle -1.92911e-14 -1.65936e-14 2.5846e-31
lhumerus -48.8835 -10.6383 95.8066
lradius 31.9025 -0 0
lwrist 15.7876 0 0
lhand -14.93 -24.403 0.0139795
lfingers 7.12502 -0 0
lthumb 11.2315 5.2627 0.0101118
rclavicle -1.92911e-14 -1.65936e-14 2.5846e-31
rhumerus -40.6758 9.81397 -78.7373
rradius 44.7855 -0 0
rwrist -21.7733 0 0
rhand -31.2577 -25.1886 0.00039838
rfingers 7.12502 -0 0
rthumb -4.53195 -55.12 0.000376901
189
root 8.20632 16.6226 -10.7553 7.73531 4.77775 -2.09076
lfemur -33.6523 7.80525 -19.6435
ltibia 57.9469 -0 0
lfoot -12.2821 11.4448 -0.0267619
ltoes -2.66319 0 0
rfemur -15.1133 3.91643 26.778
rtibia 28.0178 -0 0
rfoot -17.2605 1.52349 0.0664745
rtoes -14.2998 0 0
lowerback -4.24329 1.20582 0.400709
upperback -2.07676 1.58023 3.18205
thorax 0.166042 0.804856 3.11731
lowerneck -13.5669 -6.92408 -15.7258
upperneck 13.0813 -8.92912 16.1114
head 7.73649 -3.79212 6.98965
lclavicle -1.95977e-14 -1.617e-14 3.17407e-31
lhumerus -48.8289 -10.5403 95.6694
lradius 31.6804 -0 0
lwrist 15.4031 0 0
lhand -14.7755 -24.3576 0.0171685
lfingers 7.12502 -0 0
lthumb 11.3803 5.2968 0.0124184
rclavicle -1.95977e-14 -1.617e-14 3.17407e-31
rhumerus -40.7775 9.79336 -78.8891
rradius 44.7467 -0 0
rwrist -21.801 0 0
rhand -31.243 -25.1749 0.000489239
rfingers 7.12502 -0 0
rthumb -4.51776 -55.1066 0.000462862
190
root 8.22537 16.6168 -10.6027 7.7757 4.59926 -2.09824
lfemur -33.8577 7.83429 -19.6936
ltibia 57.6711 -0 0
lfoot -12.1844 11.3328 -0.0315417
ltoes -2.6155 0 0
rfemur -14.6096 3.86599 26.6949
rtibia 27.9428 -0 0
rfoot -16.8269 1.58557 0.0783641
rtoes -14.3226 0 0
lowerback -4.29364 1.22234 0.395156
upperback -2.08808 1.60194 3.15837
thorax 0.182046 0.815364 3.09873
lowerneck -13.6568 -6.90988 -15.6916
upperneck 13.1496 -8.90754 16.0895
head 7.76901 -3.7776 6.9802
lclavicle -1.99044e-14 -1.57464e-14 3.74086e-31
lhumerus -48.7746 -10.4421 95.5322
lradius 31.4582 -0 0
lwrist 15.0185 0 0
lhand -14.621 -24.3122 0.0202349
lfingers 7.12502 -0 0
lthumb 11.5291 5.33091 0.0146364
rclavicle -1.99044e-14 -1.57464e-14 3.74086e-31
rhumerus -40.8791 9.77248 -79.0409
rradius 44.708 -0 0
rwrist -21.8286 0 0
rhand -31.2283 -25.1613 0.000576603
rfingers 7.12502 -0 0
rthumb -4.50358 -55.0933 0.000545516
